<?xml version="1.0" standalone="yes"?>
<svg width="500" height="500">
<path style="fill:#ffffff; stroke:none;" d="M0 0L0 229L1 229C1.05842 140.795 70.9607 56.4244 148 21.6944C172.63 10.5909 201.713 1.01797 229 1L208 0L161 0L0 0z"/>
<path style="fill:#0e0e0e; stroke:none;" d="M229 0L229 1L238 1L229 0z"/>
<path style="fill:#545454; stroke:none;" d="M238 0.424377C227.795 1.76428 217.117 1.47156 207 3.375C151.695 13.7804 99.5382 41.5325 62.2863 84C-33.42 193.106 -14.672 369.765 104 454.573C128.245 471.899 156.223 484.549 185 492.116C216.314 500.349 249.73 502.73 282 498.715C397.867 484.299 491.872 388.388 499.91 271C508.263 149.026 430.759 37.4274 311 7.62656C288.474 2.02115 261.179 -2.61905 238 0.424377z"/>
<path style="fill:#191919; stroke:none;" d="M256 0L256 1L272 1L256 0z"/>
<path style="fill:#ffffff; stroke:none;" d="M272 0L272 1C360.205 1.05814 444.576 70.9608 479.306 148C488.964 169.425 498.509 195.223 499 219L500 219L500 0L272 0z"/>
<path style="fill:#181818; stroke:none;" d="M219 1L219 2L225 2L219 1z"/>
<path style="fill:#000000; stroke:none;" d="M274 1L274 2L282 2L274 1z"/>
<path style="fill:#262626; stroke:none;" d="M212 2L212 3L218 3L212 2z"/>
<path style="fill:#0d0d0d; stroke:none;" d="M283 2L283 3L289 3L283 2z"/>
<path style="fill:#060606; stroke:none;" d="M290 3L290 4L295 4L290 3z"/>
<path style="fill:#0a0a0a; stroke:none;" d="M201 4L201 5L204 5L201 4z"/>
<path style="fill:#010101; stroke:none;" d="M296 4L296 5L300 5L296 4z"/>
<path style="fill:#080808; stroke:none;" d="M196 5L196 6L199 6L196 5z"/>
<path style="fill:#000000; stroke:none;" d="M301 5L301 6L305 6L301 5z"/>
<path style="fill:#0f0f0f; stroke:none;" d="M192 6L192 7L195 7L192 6M306 6L306 7L309 7L306 6z"/>
<path style="fill:#111111; stroke:none;" d="M188 7L188 8L191 8L188 7M310 7L310 8L313 8L310 7z"/>
<path style="fill:#0e0e0e; stroke:none;" d="M184 8L184 9L187 9L184 8M314 8L314 9L317 9L314 8z"/>
<path style="fill:#1d1d1d; stroke:none;" d="M181.667 9.33334L182.333 9.66666L181.667 9.33334z"/>
<path style="fill:#080808; stroke:none;" d="M318.667 9.33334L319.333 9.66666L318.667 9.33334z"/>
<path style="fill:#0f0f0f; stroke:none;" d="M177 10L177 11L180 11L177 10M321 10L321 11L324 11L321 10z"/>
<path style="fill:#151515; stroke:none;" d="M174.667 11.3333L175.333 11.6667L174.667 11.3333z"/>
<path style="fill:#030303; stroke:none;" d="M325.667 11.3333L326.333 11.6667L325.667 11.3333z"/>
<path style="fill:#181818; stroke:none;" d="M171.667 12.3333L172.333 12.6667L171.667 12.3333z"/>
<path style="fill:#040404; stroke:none;" d="M328.667 12.3333L329.333 12.6667L328.667 12.3333z"/>
<path style="fill:#181818; stroke:none;" d="M168.667 13.3333L169.333 13.6667L168.667 13.3333z"/>
<path style="fill:#030303; stroke:none;" d="M331.667 13.3333L332.333 13.6667L331.667 13.3333z"/>
<path style="fill:#141414; stroke:none;" d="M165.667 14.3333L166.333 14.6667L165.667 14.3333z"/>
<path style="fill:#010101; stroke:none;" d="M334.667 14.3333L335.333 14.6667L334.667 14.3333z"/>
<path style="fill:#0d0d0d; stroke:none;" d="M162 15L162 16L165 16L162 15M336 15L336 16L339 16L336 15z"/>
<path style="fill:#060606; stroke:none;" d="M339.667 16.3333L340.333 16.6667L339.667 16.3333z"/>
<path style="fill:#141414; stroke:none;" d="M157.667 17.3333L158.333 17.6667L157.667 17.3333z"/>
<path style="fill:#000000; stroke:none;" d="M342.667 17.3333L343.333 17.6667L342.667 17.3333z"/>
<path style="fill:#070707; stroke:none;" d="M344.667 18.3333L345.333 18.6667L344.667 18.3333z"/>
<path style="fill:#111111; stroke:none;" d="M152.667 19.3333L153.333 19.6667L152.667 19.3333z"/>
<path style="fill:#000000; stroke:none;" d="M347.667 19.3333L348.333 19.6667L347.667 19.3333z"/>
<path style="fill:#1d1d1d; stroke:none;" d="M150.667 20.3333L151.333 20.6667L150.667 20.3333z"/>
<path style="fill:#020202; stroke:none;" d="M349.667 20.3333L350.333 20.6667L349.667 20.3333z"/>
<path style="fill:#070707; stroke:none;" d="M351.667 21.3333L352.333 21.6667L351.667 21.3333z"/>
<path style="fill:#121212; stroke:none;" d="M143.667 23.3333L144.333 23.6667L143.667 23.3333z"/>
<path style="fill:#000000; stroke:none;" d="M356.667 23.3333L357.333 23.6667L356.667 23.3333z"/>
<path style="fill:#161616; stroke:none;" d="M141.667 24.3333L142.333 24.6667L141.667 24.3333z"/>
<path style="fill:#000000; stroke:none;" d="M358.667 24.3333L359.333 24.6667L358.667 24.3333z"/>
<path style="fill:#191919; stroke:none;" d="M139.667 25.3333L140.333 25.6667L139.667 25.3333z"/>
<path style="fill:#000000; stroke:none;" d="M360.667 25.3333L361.333 25.6667L360.667 25.3333z"/>
<path style="fill:#1a1a1a; stroke:none;" d="M137.667 26.3333L138.333 26.6667L137.667 26.3333z"/>
<path style="fill:#000000; stroke:none;" d="M362.667 26.3333L363.333 26.6667L362.667 26.3333z"/>
<path style="fill:#191919; stroke:none;" d="M135.667 27.3333L136.333 27.6667L135.667 27.3333z"/>
<path style="fill:#000000; stroke:none;" d="M364.667 27.3333L365.333 27.6667L364.667 27.3333z"/>
<path style="fill:#161616; stroke:none;" d="M133.667 28.3333L134.333 28.6667L133.667 28.3333z"/>
<path style="fill:#000000; stroke:none;" d="M366.667 28.3333L367.333 28.6667L366.667 28.3333z"/>
<path style="fill:#020202; stroke:none;" d="M373.667 32.3333L374.333 32.6667L373.667 32.3333z"/>
<path style="fill:#000000; stroke:none;" d="M375.667 33.3333L376.333 33.6667L375.667 33.3333M380.667 36.3333L381.333 36.6667L380.667 36.3333z"/>
<path style="fill:#909090; stroke:none;" d="M144 124L143 124L123 146L123 147L138 158L139 158L140 156L141 156L176 189.17L214 223L214 217L220 217L220 227C225.38 222.557 227.287 217.25 235 217C226.027 228.307 226.112 232.257 236 243C229.29 242.921 226.702 240.401 223 235L221 235L220 243C201.922 243.214 194.964 269.217 179 274C172.263 283.612 147.089 304.292 147 279L146 279L146 287C129.961 287.011 118.021 296.033 107 307.001C90.0225 323.896 79.3844 338.433 85 363C96.348 354.984 104.351 337.037 118 332.517C124.02 330.523 131.274 339.305 134.999 343.004C139.128 347.103 148.475 354.737 148.787 361C149.003 365.331 144.097 369.918 141.576 373C134.884 381.18 126.277 388.87 121 398C152.337 409.421 185.656 374.959 192.985 347C194.265 342.12 194.712 335.971 193.606 331C192.848 327.589 190.054 324.557 191.697 321C198.397 306.49 216.84 293.16 228 282L228 287L229 287L228 270L231 270L231 278L251 258L252 258L263 268L263 269L256 277L257 278C265.946 276.531 266.11 287.487 257 286C256.673 304.964 286.662 323.102 300 335.17C317.779 351.255 335.737 367.376 353 384.011C361.233 391.945 369.457 401.935 382 399.671C391.186 398.013 397.923 387.431 403.91 381C408.292 376.294 414.261 371.004 416.772 365C422.813 350.554 408.276 340.562 399 332.17C387.259 321.547 375.454 310.973 364 300.039C359.458 295.704 352.903 291.75 350.028 286C347.809 281.563 349 274.842 349 270L348 270L348 287L347 287L347 270L346 270L346 284L300 242C290.748 244.177 282.865 242.654 278 253L266 244L266 243C280.661 232.672 286.819 216.758 304 209.215C311.156 206.074 322.673 211.304 331 208.961C357.877 201.396 395.196 168.07 382 137C373.054 143.302 366.307 152.458 358 159.572C355.183 161.984 351.136 166.637 347 165.867C340.572 164.671 334.346 156.353 330 152C326.346 148.341 317.978 141.94 318.931 136C321.16 122.102 341.277 113.273 347 101C316.068 91.1945 283.125 121.628 275.04 150C272.675 158.299 279.273 169.291 276.242 176C271.227 187.104 257.935 197.043 249.83 206C247.143 208.969 243.033 214.734 239 215.793C235.759 216.644 233.045 212.965 231 211.038C225.443 205.8 219.765 200.583 214 195.576C195.683 179.664 175.19 163.138 159.094 144.999C153.474 138.666 149.711 130.558 144 124z"/>
<path style="fill:#1e1e1e; stroke:none;" d="M36.3333 119.667L36.6667 120.333L36.3333 119.667M464.333 119.667L464.667 120.333L464.333 119.667z"/>
<path style="fill:#1b1b1b; stroke:none;" d="M33.3333 124.667L33.6667 125.333L33.3333 124.667M467.333 124.667L467.667 125.333L467.333 124.667z"/>
<path style="fill:#161616; stroke:none;" d="M28.3333 133.667L28.6667 134.333L28.3333 133.667M472.333 133.667L472.667 134.333L472.333 133.667z"/>
<path style="fill:#191919; stroke:none;" d="M27.3333 135.667L27.6667 136.333L27.3333 135.667M473.333 135.667L473.667 136.333L473.333 135.667z"/>
<path style="fill:#1a1a1a; stroke:none;" d="M26.3333 137.667L26.6667 138.333L26.3333 137.667M474.333 137.667L474.667 138.333L474.333 137.667z"/>
<path style="fill:#191919; stroke:none;" d="M25.3333 139.667L25.6667 140.333L25.3333 139.667M475.333 139.667L475.667 140.333L475.333 139.667z"/>
<path style="fill:#161616; stroke:none;" d="M24.3333 141.667L24.6667 142.333L24.3333 141.667M476.333 141.667L476.667 142.333L476.333 141.667z"/>
<path style="fill:#121212; stroke:none;" d="M23.3333 143.667L23.6667 144.333L23.3333 143.667M477.333 143.667L477.667 144.333L477.333 143.667z"/>
<path style="fill:#1d1d1d; stroke:none;" d="M20.3333 150.667L20.6667 151.333L20.3333 150.667M480.333 150.667L480.667 151.333L480.333 150.667z"/>
<path style="fill:#111111; stroke:none;" d="M19.3333 152.667L19.6667 153.333L19.3333 152.667M481.333 152.667L481.667 153.333L481.333 152.667z"/>
<path style="fill:#141414; stroke:none;" d="M17.3333 157.667L17.6667 158.333L17.3333 157.667M483.333 157.667L483.667 158.333L483.333 157.667z"/>
<path style="fill:#0d0d0d; stroke:none;" d="M15 162L15 165L16 165L15 162M485 162L485 165L486 165L485 162z"/>
<path style="fill:#141414; stroke:none;" d="M14.3333 165.667L14.6667 166.333L14.3333 165.667M486.333 165.667L486.667 166.333L486.333 165.667z"/>
<path style="fill:#181818; stroke:none;" d="M13.3333 168.667L13.6667 169.333L13.3333 168.667M487.333 168.667L487.667 169.333L487.333 168.667M12.3333 171.667L12.6667 172.333L12.3333 171.667M488.333 171.667L488.667 172.333L488.333 171.667z"/>
<path style="fill:#151515; stroke:none;" d="M11.3333 174.667L11.6667 175.333L11.3333 174.667M489.333 174.667L489.667 175.333L489.333 174.667z"/>
<path style="fill:#0f0f0f; stroke:none;" d="M10 177L10 180L11 180L10 177M490 177L490 180L491 180L490 177z"/>
<path style="fill:#1d1d1d; stroke:none;" d="M9.33333 181.667L9.66667 182.333L9.33333 181.667M491.333 181.667L491.667 182.333L491.333 181.667z"/>
<path style="fill:#0e0e0e; stroke:none;" d="M8 184L8 187L9 187L8 184M492 184L492 187L493 187L492 184z"/>
<path style="fill:#111111; stroke:none;" d="M7 188L7 191L8 191L7 188M493 188L493 191L494 191L493 188z"/>
<path style="fill:#0f0f0f; stroke:none;" d="M6 192L6 195L7 195L6 192M494 192L494 195L495 195L494 192z"/>
<path style="fill:#080808; stroke:none;" d="M5 196L5 199L6 199L5 196M495 196L495 199L496 199L495 196z"/>
<path style="fill:#0a0a0a; stroke:none;" d="M4 201L4 204L5 204L4 201M496 201L496 204L497 204L496 201z"/>
<path style="fill:#262626; stroke:none;" d="M2 212L2 218L3 218L2 212M498 212L498 218L499 218L498 212z"/>
<path style="fill:#b8b8b8; stroke:none;" d="M88 216L88 217L96 217L88 216z"/>
<path style="fill:#838383; stroke:none;" d="M112 216L112 217L133 217L112 216M152 216L152 217L157 217L152 216z"/>
<path style="fill:#c2c2c2; stroke:none;" d="M187 216L187 217L193 217L187 216z"/>
<path style="fill:#d8d8d8; stroke:none;" d="M255 216L255 217L261 217L255 216z"/>
<path style="fill:#c9c9c9; stroke:none;" d="M292 216L292 217L296 217L292 216z"/>
<path style="fill:#939393; stroke:none;" d="M296.667 216.333L297.333 216.667L296.667 216.333z"/>
<path style="fill:#838383; stroke:none;" d="M320 216L320 217L329 217L320 216M352 216L352 217L367 217L352 216M380 216L380 217L385 217L380 216M398 216L398 217L407 217L398 216z"/>
<path style="fill:#ffffff; stroke:none;" d="M97 234C93.2957 241.317 88.119 235.457 82 235C83.6251 245.495 103.251 246.385 102.743 235.003C102.39 227.091 91.2085 228.118 88 222L102 224C97.1675 206.987 70.7036 224.489 89.0008 231.751C91.5618 232.767 94.3229 233.386 97 234M112 217L112 222L120 222L120 243L125 243L125 222L133 222L133 217L112 217M151 217L141 243L148 243L149 237L167 243C165.503 234.578 160.712 217.319 151 217M203 234C198.438 234.054 193.055 238.374 189.015 237.288C182.127 235.437 181.78 225.938 188.019 223.072C191.953 221.264 197.707 224.873 202 225C198.236 211.711 178.067 215.857 177.215 229C176.211 244.471 198.152 248.134 203 234M214 217L214 243L220 243L220 232L221 232C224.133 239.449 227.907 242.971 236 243C227.607 230.31 227.529 230.113 235 217C227.091 217.093 224.799 221.375 220 227L220 217L214 217M271 234C266.438 234.054 261.055 238.374 257.015 237.288C250.127 235.437 249.78 225.938 256.019 223.072C259.953 221.264 265.707 224.873 270 225C266.619 213.064 247.304 214.817 245.232 227C242.477 243.204 265.723 249.383 271 234M289.015 217.858C274.008 224.099 284.619 248.296 299.996 241.991C316.204 235.345 305.034 211.196 289.015 217.858z"/>
<path style="fill:#737373; stroke:none;" d="M319 217L319 243L320 243L319 217z"/>
<path style="fill:#ffffff; stroke:none;" d="M320 217L320 243C325.113 242.997 331.459 243.347 335.786 240.11C341.628 235.742 341.726 224.05 335.891 219.703C331.387 216.347 325.284 217 320 217z"/>
<path style="fill:#909090; stroke:none;" d="M331.667 217.333L332.333 217.667L331.667 217.333z"/>
<path style="fill:#ffffff; stroke:none;" d="M352 217L352 243L367 243L367 238L358 238L358 232L367 232L367 228L358 228L358 222L367 222L367 217L352 217z"/>
<path style="fill:#868686; stroke:none;" d="M367 217L367 222L368 222L367 217z"/>
<path style="fill:#9e9e9e; stroke:none;" d="M379 217L379 243L380 243L379 217z"/>
<path style="fill:#ffffff; stroke:none;" d="M380 217L380 243L385 243L385 217L380 217z"/>
<path style="fill:#939393; stroke:none;" d="M385 217L385 243L386 243L385 217z"/>
<path style="fill:#737373; stroke:none;" d="M397 217L397 243L398 243L397 217z"/>
<path style="fill:#ffffff; stroke:none;" d="M398 217L398 243C403.113 242.997 409.459 243.347 413.786 240.11C419.628 235.742 419.726 224.05 413.891 219.703C409.387 216.347 403.284 217 398 217z"/>
<path style="fill:#909090; stroke:none;" d="M409.667 217.333L410.333 217.667L409.667 217.333z"/>
<path style="fill:#181818; stroke:none;" d="M1 219L1 225L2 225L1 219M499 219L499 225L500 225L499 219z"/>
<path style="fill:#898989; stroke:none;" d="M119 222L119 243L120 243L119 222z"/>
<path style="fill:#a6a6a6; stroke:none;" d="M125 222L125 243L126 243L125 222z"/>
<path style="fill:#545454; stroke:none;" d="M292.059 223.043C283.613 227.379 290.09 241.107 298.772 235.821C305.769 231.56 299.661 219.141 292.059 223.043z"/>
<path style="fill:#b1b1b1; stroke:none;" d="M325 222L325 238L329 238L329 237L326 237L325 222z"/>
<path style="fill:#545454; stroke:none;" d="M326 222L326 237C336.563 236.201 336.089 223.361 326 222z"/>
<path style="fill:#b1b1b1; stroke:none;" d="M403 222L403 238L407 238L407 237L404 237L403 222z"/>
<path style="fill:#545454; stroke:none;" d="M404 222L404 237C414.563 236.201 414.089 223.361 404 222z"/>
<path style="fill:#cecece; stroke:none;" d="M97 224L97 225L102 225L97 224z"/>
<path style="fill:#545454; stroke:none;" d="M154 224L151 233L157 233L154 224z"/>
<path style="fill:#b4b4b4; stroke:none;" d="M202 224L197 225L197 226L202 224z"/>
<path style="fill:#cecece; stroke:none;" d="M270 224L265 225L265 226L270 224z"/>
<path style="fill:#c6c6c6; stroke:none;" d="M177.333 225.667L177.667 226.333L177.333 225.667z"/>
<path style="fill:#b6b6b6; stroke:none;" d="M281 227L281 233L282 233L281 227z"/>
<path style="fill:#7a7a7a; stroke:none;" d="M287 227L287 232L288 232L287 227z"/>
<path style="fill:#8d8d8d; stroke:none;" d="M308 227L308 232L309 232L308 227z"/>
<path style="fill:#838383; stroke:none;" d="M334 227L334 232L335 232L334 227z"/>
<path style="fill:#bebebe; stroke:none;" d="M340 227L340 233L341 233L340 227z"/>
<path style="fill:#dfdfdf; stroke:none;" d="M358 227L358 228L367 228L358 227z"/>
<path style="fill:#838383; stroke:none;" d="M412 227L412 232L413 232L412 227z"/>
<path style="fill:#bebebe; stroke:none;" d="M418 227L418 233L419 233L418 227z"/>
<path style="fill:#9d9d9d; stroke:none;" d="M302 228L302 232L303 232L302 228z"/>
<path style="fill:#0e0e0e; stroke:none;" d="M0 229L0 238L1 238L0 229z"/>
<path style="fill:#545454; stroke:none;" d="M280 229L266 243L266 244L278 253L289 243L280 229M220 232L220 236L221 236L220 232z"/>
<path style="fill:#a1a1a1; stroke:none;" d="M358 232L358 233L367 233L358 232z"/>
<path style="fill:#c4c4c4; stroke:none;" d="M81 237L82 237L87 235C84.2378 233.409 81.7139 233.669 81 237z"/>
<path style="fill:#cccccc; stroke:none;" d="M149 237L149 238L159 238L149 237z"/>
<path style="fill:#a0a0a0; stroke:none;" d="M293 237L293 238L297 238L293 237z"/>
<path style="fill:#7e7e7e; stroke:none;" d="M358 237L358 238L367 238L358 237z"/>
<path style="fill:#868686; stroke:none;" d="M367 238L367 243L368 243L367 238z"/>
<path style="fill:#c8c8c8; stroke:none;" d="M329 242L329 243L332 243L329 242M407 242L407 243L410 243L407 242z"/>
<path style="fill:#bababa; stroke:none;" d="M89 243L89 244L94 244L89 243z"/>
<path style="fill:#878787; stroke:none;" d="M188 243L188 244L193 244L188 243z"/>
<path style="fill:#191919; stroke:none;" d="M0 256L0 272L1 272L0 256z"/>
<path style="fill:#545454; stroke:none;" d="M324 285L323 285C319.507 286.76 317.796 286.815 315 284L321 286C318.311 278.564 307.387 269.058 301 264.434C298.222 262.422 291.948 260.775 291.546 266.055C290.98 273.509 308.086 284.254 313 288.989C331.863 307.166 351.817 324.251 371 342.09C376.368 347.082 386.429 360.605 393.956 361.338C399.533 361.881 398.986 355.244 396.566 352.285C390.482 344.849 382.033 338.63 375 332.09C368.415 325.966 361.504 320.17 355 313.961C344.77 304.195 334.004 295.003 324 285z"/>
<path style="fill:#ffffff; stroke:none;" d="M126 270L126 287L127 287L129 283L129 282L129 281L126 270z"/>
<path style="fill:#aeaeae; stroke:none;" d="M127 270L129 281L127 270z"/>
<path style="fill:#b0b0b0; stroke:none;" d="M228 270L228 281L229 281L228 270z"/>
<path style="fill:#ffffff; stroke:none;" d="M229 270L229 287L230 287L229 270z"/>
<path style="fill:#afafaf; stroke:none;" d="M230 270L230 279L231 279L230 270z"/>
<path style="fill:#ffffff; stroke:none;" d="M347 270L347 287L348 287L347 270z"/>
<path style="fill:#b1b1b1; stroke:none;" d="M372 270L372 287L373 287L372 270z"/>
<path style="fill:#ffffff; stroke:none;" d="M373 270L373 287L374 287L373 270M0 272L0 500L219 500L219 499C199.069 498.589 177.362 491.323 159 484C101.486 461.064 50.3732 415.725 24.3086 359C16.184 341.318 9.62663 323.026 5.42438 304C3.23751 294.099 3.83396 281.133 0 272z"/>
<path style="fill:#dfdfdf; stroke:none;" d="M98 273L96 277L96 278L98 287L100 287L102 278L102 277L100 273L98 273z"/>
<path style="fill:#8b8b8b; stroke:none;" d="M156.667 273.333L157.333 273.667L156.667 273.333z"/>
<path style="fill:#ffffff; stroke:none;" d="M180.333 273.667L180.667 274.333L180.333 273.667M201 273L199 277L199 278L201 287L202 287L205 278L205 277L202 277L201 273z"/>
<path style="fill:#cbcbcb; stroke:none;" d="M202 273L202 277L203 277L202 273z"/>
<path style="fill:#000000; stroke:none;" d="M1 274L1 282L2 282L1 274z"/>
<path style="fill:#d2d2d2; stroke:none;" d="M156.667 274.333L157.333 274.667L156.667 274.333z"/>
<path style="fill:#000000; stroke:none;" d="M499 274L499 282L500 282L499 274z"/>
<path style="fill:#f8f8f8; stroke:none;" d="M118 284C108.593 286.234 111.672 276.144 117 282C117.863 277.897 112.497 275.524 110.032 279.319C106.164 285.275 114.016 288.049 118 284z"/>
<path style="fill:#cecece; stroke:none;" d="M127 287L128 287L128 284L133 287L133 277C129.091 279.115 127.576 282.675 127 287z"/>
<path style="fill:#fafafa; stroke:none;" d="M140 277L140 287L141 287L146 278L147 287L148 287C147.994 279.85 147.47 277.482 140 277z"/>
<path style="fill:#888888; stroke:none;" d="M141.667 277.333L142.333 277.667L141.667 277.333z"/>
<path style="fill:#f4f4f4; stroke:none;" d="M156 277L156 287L157 287L156 277z"/>
<path style="fill:#c1c1c1; stroke:none;" d="M157 277L157 287L158 287L157 277z"/>
<path style="fill:#f3f3f3; stroke:none;" d="M171 283L165 284C166.243 285.91 171.323 288.522 171.365 284.076C171.385 281.956 168.042 279.774 167 278L172 279C166.455 274.872 163.502 281.804 171 283z"/>
<path style="fill:#c0c0c0; stroke:none;" d="M179 277L179 287L180 287L179 277z"/>
<path style="fill:#ffffff; stroke:none;" d="M180 277L180 287L181 287L180 277z"/>
<path style="fill:#cbcbcb; stroke:none;" d="M198 277L201 279L201 278L198 277z"/>
<path style="fill:#f4f4f4; stroke:none;" d="M221 284C211.544 285.454 214.902 276.396 220 282C220.957 277.446 214.705 275.58 212.194 279.433C208.125 285.679 217.093 287.975 221 284z"/>
<path style="fill:#fafafa; stroke:none;" d="M247 284C238.657 285.982 239.009 277.339 248 282C246.219 277.344 238.296 274.924 238.296 282C238.296 287.508 244.485 287.556 247 284z"/>
<path style="fill:#ffffff; stroke:none;" d="M255 277L255 292L256 292L256 286C260.415 287 268.802 284.312 263.258 278.606C261.268 276.559 257.597 277.192 255 277M274.318 278.043C269.219 281.247 274.489 289.097 279.566 285.806C284.674 282.494 279.367 274.87 274.318 278.043z"/>
<path style="fill:#cccccc; stroke:none;" d="M289 277L289 287L290 287L289 277z"/>
<path style="fill:#ffffff; stroke:none;" d="M290 277L290 287L291 287C291.139 282.735 291.708 280.303 296 279L296 287L298 287C297.976 280.299 296.942 277.586 290 277z"/>
<path style="fill:#f7f7f7; stroke:none;" d="M321 286L317 286L317 287C323.927 286.46 322.364 282.177 317 280L317 279L322 279C314.118 273.296 319.442 283.346 321 286z"/>
<path style="fill:#fbfbfb; stroke:none;" d="M339 284C329.593 286.234 332.672 276.144 338 282C338.863 277.897 333.497 275.524 331.032 279.319C327.164 285.275 335.016 288.049 339 284z"/>
<path style="fill:#e0e0e0; stroke:none;" d="M356 277C356.026 284.484 357.642 286.432 365 287L365 277L363 277C362.861 281.265 362.292 283.697 358 285L358 277L356 277z"/>
<path style="fill:#ffffff; stroke:none;" d="M391 287L391 277L390 277C388.383 288.21 380.743 281.706 388 278C384.027 276.737 380.508 280.764 383.032 284.681C384.717 287.295 388.317 286.803 391 287z"/>
<path style="fill:#a3a3a3; stroke:none;" d="M391 277L391 287L392 287L391 277z"/>
<path style="fill:#dcdcdc; stroke:none;" d="M399 277L399 287L401 287L404 277L399 277z"/>
<path style="fill:#898989; stroke:none;" d="M404.333 277.667L404.667 278.333L404.333 277.667z"/>
<path style="fill:#a9a9a9; stroke:none;" d="M96.6667 278.333L97.3333 278.667L96.6667 278.333M100.667 278.333L101.333 278.667L100.667 278.333z"/>
<path style="fill:#979797; stroke:none;" d="M112 278L112 279L115 279L112 278z"/>
<path style="fill:#b0b0b0; stroke:none;" d="M144.667 278.333L145.333 278.667L144.667 278.333z"/>
<path style="fill:#c7c7c7; stroke:none;" d="M203.667 278.333L204.333 278.667L203.667 278.333z"/>
<path style="fill:#909090; stroke:none;" d="M213 281L219 281C217.002 278.031 215.385 278.632 213 281z"/>
<path style="fill:#9b9b9b; stroke:none;" d="M241 278L241 279L244 279L241 278z"/>
<path style="fill:#909090; stroke:none;" d="M273 284L274 284L281 283C278.792 277.245 274.206 278.353 273 284M331 281L338 281C335.304 278.355 333.696 278.355 331 281z"/>
<path style="fill:#d0d0d0; stroke:none;" d="M385 278L385 279L390 279L385 278z"/>
<path style="fill:#545454; stroke:none;" d="M110 280L110 281L117 281L110 280M142 287L146 287L146 279C141.954 280.343 142.047 283.065 142 287z"/>
<path style="fill:#9b9b9b; stroke:none;" d="M148 279L148 287L149 287L148 279z"/>
<path style="fill:#a9a9a9; stroke:none;" d="M170.667 279.333L171.333 279.667L170.667 279.333z"/>
<path style="fill:#cbcbcb; stroke:none;" d="M202 279L202 287L203 287L202 279z"/>
<path style="fill:#838383; stroke:none;" d="M230 279L230 287L231 287L230 279z"/>
<path style="fill:#545454; stroke:none;" d="M240 279L240 281L246 281L240 279z"/>
<path style="fill:#949494; stroke:none;" d="M254 279L254 289L255 289L254 279z"/>
<path style="fill:#909090; stroke:none;" d="M258.603 280.086C256.181 281.891 258.883 286.364 261.397 284.253C263.723 282.3 261.231 278.128 258.603 280.086z"/>
<path style="fill:#545454; stroke:none;" d="M389 285L389 279C382.466 279.509 382.466 284.491 389 285z"/>
<path style="fill:#c2c2c2; stroke:none;" d="M108 280L108 284L109 284L108 280z"/>
<path style="fill:#bebebe; stroke:none;" d="M118 280L110 281L110 283C112.616 283 119.541 284.089 118 280z"/>
<path style="fill:#d5d5d5; stroke:none;" d="M213 281L213 283L221 283L220 280L213 281z"/>
<path style="fill:#979797; stroke:none;" d="M237 280L237 283L238 283L237 280z"/>
<path style="fill:#bebebe; stroke:none;" d="M239 280L239 284L248 283L248 282L239 280z"/>
<path style="fill:#d8d8d8; stroke:none;" d="M329 280L329 284L330 284L329 280z"/>
<path style="fill:#d5d5d5; stroke:none;" d="M339 280L331 281L331 283C333.616 283 340.541 284.089 339 280z"/>
<path style="fill:#c2c2c2; stroke:none;" d="M381 280L381 284L382 284L381 280z"/>
<path style="fill:#7a7a7a; stroke:none;" d="M389 280L389 284L390 284L389 280z"/>
<path style="fill:#aeaeae; stroke:none;" d="M141 281L141 287L142 287L141 281z"/>
<path style="fill:#545454; stroke:none;" d="M274 285L280 284L280 282C276.668 281.362 275.158 281.706 274 285z"/>
<path style="fill:#ffffff; stroke:none;" d="M499 282C498.581 302.31 491.077 324.308 483.6 343C459.572 403.069 411.971 452.721 353 479.306C331.575 488.964 305.777 498.509 282 499L282 500L500 500L500 347L500 303L499 282z"/>
<path style="fill:#0d0d0d; stroke:none;" d="M2 283L2 289L3 289L2 283z"/>
<path style="fill:#7c7c7c; stroke:none;" d="M169 283L167 285L167 286L171 283L169 283z"/>
<path style="fill:#0d0d0d; stroke:none;" d="M498 283L498 289L499 289L498 283z"/>
<path style="fill:#545454; stroke:none;" d="M281 284L273 286C277.995 296.712 291.244 305.563 300 313.285C317.596 328.805 335.001 344.866 352 361.039C358.054 366.798 364.194 373.588 371 378.427C373.302 380.064 376.955 381.835 379.392 379.392C385.39 373.379 363.867 358.506 360 354.91C343.777 339.825 327.022 325.255 311 309.961C302.125 301.489 292.179 289.206 281 284z"/>
<path style="fill:#cfcfcf; stroke:none;" d="M315 284L317 287L318 286L317 284L315 284z"/>
<path style="fill:#a5a5a5; stroke:none;" d="M112 285L112 286L115 286L112 285M241 285L241 286L244 286L241 285z"/>
<path style="fill:#acacac; stroke:none;" d="M276.667 285.333L277.333 285.667L276.667 285.333z"/>
<path style="fill:#c4c4c4; stroke:none;" d="M333 285L333 286L336 286L333 285z"/>
<path style="fill:#9a9a9a; stroke:none;" d="M385 285L385 286L388 286L385 285z"/>
<path style="fill:#cbcbcb; stroke:none;" d="M256 286L255 293L256 286z"/>
<path style="fill:#060606; stroke:none;" d="M3 290L3 295L4 295L3 290M497 290L497 295L498 295L497 290z"/>
<path style="fill:#010101; stroke:none;" d="M4 296L4 300L5 300L4 296M496 296L496 300L497 300L496 296z"/>
<path style="fill:#000000; stroke:none;" d="M5 301L5 305L6 305L5 301M495 301L495 305L496 305L495 301z"/>
<path style="fill:#0f0f0f; stroke:none;" d="M6 306L6 309L7 309L6 306M494 306L494 309L495 309L494 306z"/>
<path style="fill:#111111; stroke:none;" d="M7 310L7 313L8 313L7 310M493 310L493 313L494 313L493 310z"/>
<path style="fill:#0e0e0e; stroke:none;" d="M8 314L8 317L9 317L8 314M492 314L492 317L493 317L492 314z"/>
<path style="fill:#080808; stroke:none;" d="M9.33333 318.667L9.66667 319.333L9.33333 318.667M491.333 318.667L491.667 319.333L491.333 318.667z"/>
<path style="fill:#0f0f0f; stroke:none;" d="M10 321L10 324L11 324L10 321M490 321L490 324L491 324L490 321z"/>
<path style="fill:#030303; stroke:none;" d="M11.3333 325.667L11.6667 326.333L11.3333 325.667M489.333 325.667L489.667 326.333L489.333 325.667z"/>
<path style="fill:#040404; stroke:none;" d="M12.3333 328.667L12.6667 329.333L12.3333 328.667M488.333 328.667L488.667 329.333L488.333 328.667z"/>
<path style="fill:#030303; stroke:none;" d="M13.3333 331.667L13.6667 332.333L13.3333 331.667M487.333 331.667L487.667 332.333L487.333 331.667z"/>
<path style="fill:#010101; stroke:none;" d="M14.3333 334.667L14.6667 335.333L14.3333 334.667M486.333 334.667L486.667 335.333L486.333 334.667z"/>
<path style="fill:#0d0d0d; stroke:none;" d="M15 336L15 339L16 339L15 336M485 336L485 339L486 339L485 336z"/>
<path style="fill:#060606; stroke:none;" d="M16.3333 339.667L16.6667 340.333L16.3333 339.667M484.333 339.667L484.667 340.333L484.333 339.667z"/>
<path style="fill:#000000; stroke:none;" d="M17.3333 342.667L17.6667 343.333L17.3333 342.667M483.333 342.667L483.667 343.333L483.333 342.667z"/>
<path style="fill:#070707; stroke:none;" d="M18.3333 344.667L18.6667 345.333L18.3333 344.667M482.333 344.667L482.667 345.333L482.333 344.667z"/>
<path style="fill:#000000; stroke:none;" d="M19.3333 347.667L19.6667 348.333L19.3333 347.667M481.333 347.667L481.667 348.333L481.333 347.667z"/>
<path style="fill:#020202; stroke:none;" d="M20.3333 349.667L20.6667 350.333L20.3333 349.667M480.333 349.667L480.667 350.333L480.333 349.667z"/>
<path style="fill:#070707; stroke:none;" d="M21.3333 351.667L21.6667 352.333L21.3333 351.667M479.333 351.667L479.667 352.333L479.333 351.667z"/>
<path style="fill:#000000; stroke:none;" d="M23.3333 356.667L23.6667 357.333L23.3333 356.667M477.333 356.667L477.667 357.333L477.333 356.667M24.3333 358.667L24.6667 359.333L24.3333 358.667M476.333 358.667L476.667 359.333L476.333 358.667M25.3333 360.667L25.6667 361.333L25.3333 360.667M475.333 360.667L475.667 361.333L475.333 360.667M26.3333 362.667L26.6667 363.333L26.3333 362.667M474.333 362.667L474.667 363.333L474.333 362.667M27.3333 364.667L27.6667 365.333L27.3333 364.667M473.333 364.667L473.667 365.333L473.333 364.667M28.3333 366.667L28.6667 367.333L28.3333 366.667M472.333 366.667L472.667 367.333L472.333 366.667z"/>
<path style="fill:#020202; stroke:none;" d="M32.3333 373.667L32.6667 374.333L32.3333 373.667M468.333 373.667L468.667 374.333L468.333 373.667z"/>
<path style="fill:#000000; stroke:none;" d="M33.3333 375.667L33.6667 376.333L33.3333 375.667M467.333 375.667L467.667 376.333L467.333 375.667M36.3333 380.667L36.6667 381.333L36.3333 380.667M464.333 380.667L464.667 381.333L464.333 380.667z"/>
<path style="fill:#727272; stroke:none;" d="M129 400L129 401L139 401L129 400z"/>
<path style="fill:#1e1e1e; stroke:none;" d="M119.667 464.333L120.333 464.667L119.667 464.333z"/>
<path style="fill:#000000; stroke:none;" d="M380.667 464.333L381.333 464.667L380.667 464.333z"/>
<path style="fill:#1b1b1b; stroke:none;" d="M124.667 467.333L125.333 467.667L124.667 467.333z"/>
<path style="fill:#000000; stroke:none;" d="M375.667 467.333L376.333 467.667L375.667 467.333z"/>
<path style="fill:#020202; stroke:none;" d="M373.667 468.333L374.333 468.667L373.667 468.333z"/>
<path style="fill:#161616; stroke:none;" d="M133.667 472.333L134.333 472.667L133.667 472.333z"/>
<path style="fill:#000000; stroke:none;" d="M366.667 472.333L367.333 472.667L366.667 472.333z"/>
<path style="fill:#191919; stroke:none;" d="M135.667 473.333L136.333 473.667L135.667 473.333z"/>
<path style="fill:#000000; stroke:none;" d="M364.667 473.333L365.333 473.667L364.667 473.333z"/>
<path style="fill:#1a1a1a; stroke:none;" d="M137.667 474.333L138.333 474.667L137.667 474.333z"/>
<path style="fill:#000000; stroke:none;" d="M362.667 474.333L363.333 474.667L362.667 474.333z"/>
<path style="fill:#191919; stroke:none;" d="M139.667 475.333L140.333 475.667L139.667 475.333z"/>
<path style="fill:#000000; stroke:none;" d="M360.667 475.333L361.333 475.667L360.667 475.333z"/>
<path style="fill:#161616; stroke:none;" d="M141.667 476.333L142.333 476.667L141.667 476.333z"/>
<path style="fill:#000000; stroke:none;" d="M358.667 476.333L359.333 476.667L358.667 476.333z"/>
<path style="fill:#121212; stroke:none;" d="M143.667 477.333L144.333 477.667L143.667 477.333z"/>
<path style="fill:#000000; stroke:none;" d="M356.667 477.333L357.333 477.667L356.667 477.333z"/>
<path style="fill:#070707; stroke:none;" d="M351.667 479.333L352.333 479.667L351.667 479.333z"/>
<path style="fill:#1d1d1d; stroke:none;" d="M150.667 480.333L151.333 480.667L150.667 480.333z"/>
<path style="fill:#020202; stroke:none;" d="M349.667 480.333L350.333 480.667L349.667 480.333z"/>
<path style="fill:#111111; stroke:none;" d="M152.667 481.333L153.333 481.667L152.667 481.333z"/>
<path style="fill:#000000; stroke:none;" d="M347.667 481.333L348.333 481.667L347.667 481.333z"/>
<path style="fill:#070707; stroke:none;" d="M344.667 482.333L345.333 482.667L344.667 482.333z"/>
<path style="fill:#141414; stroke:none;" d="M157.667 483.333L158.333 483.667L157.667 483.333z"/>
<path style="fill:#000000; stroke:none;" d="M342.667 483.333L343.333 483.667L342.667 483.333z"/>
<path style="fill:#060606; stroke:none;" d="M339.667 484.333L340.333 484.667L339.667 484.333z"/>
<path style="fill:#0d0d0d; stroke:none;" d="M162 485L162 486L165 486L162 485M336 485L336 486L339 486L336 485z"/>
<path style="fill:#141414; stroke:none;" d="M165.667 486.333L166.333 486.667L165.667 486.333z"/>
<path style="fill:#010101; stroke:none;" d="M334.667 486.333L335.333 486.667L334.667 486.333z"/>
<path style="fill:#181818; stroke:none;" d="M168.667 487.333L169.333 487.667L168.667 487.333z"/>
<path style="fill:#030303; stroke:none;" d="M331.667 487.333L332.333 487.667L331.667 487.333z"/>
<path style="fill:#181818; stroke:none;" d="M171.667 488.333L172.333 488.667L171.667 488.333z"/>
<path style="fill:#040404; stroke:none;" d="M328.667 488.333L329.333 488.667L328.667 488.333z"/>
<path style="fill:#151515; stroke:none;" d="M174.667 489.333L175.333 489.667L174.667 489.333z"/>
<path style="fill:#030303; stroke:none;" d="M325.667 489.333L326.333 489.667L325.667 489.333z"/>
<path style="fill:#0f0f0f; stroke:none;" d="M177 490L177 491L180 491L177 490M321 490L321 491L324 491L321 490z"/>
<path style="fill:#1d1d1d; stroke:none;" d="M181.667 491.333L182.333 491.667L181.667 491.333z"/>
<path style="fill:#080808; stroke:none;" d="M318.667 491.333L319.333 491.667L318.667 491.333z"/>
<path style="fill:#0e0e0e; stroke:none;" d="M184 492L184 493L187 493L184 492M314 492L314 493L317 493L314 492z"/>
<path style="fill:#111111; stroke:none;" d="M188 493L188 494L191 494L188 493M310 493L310 494L313 494L310 493z"/>
<path style="fill:#0f0f0f; stroke:none;" d="M192 494L192 495L195 495L192 494M306 494L306 495L309 495L306 494z"/>
<path style="fill:#080808; stroke:none;" d="M196 495L196 496L199 496L196 495z"/>
<path style="fill:#000000; stroke:none;" d="M301 495L301 496L305 496L301 495z"/>
<path style="fill:#0a0a0a; stroke:none;" d="M201 496L201 497L204 497L201 496z"/>
<path style="fill:#010101; stroke:none;" d="M296 496L296 497L300 497L296 496z"/>
<path style="fill:#060606; stroke:none;" d="M290 497L290 498L295 498L290 497z"/>
<path style="fill:#262626; stroke:none;" d="M212 498L212 499L218 499L212 498z"/>
<path style="fill:#0d0d0d; stroke:none;" d="M283 498L283 499L289 499L283 498z"/>
<path style="fill:#181818; stroke:none;" d="M219 499L219 500L225 500L219 499z"/>
<path style="fill:#000000; stroke:none;" d="M274 499L274 500L282 500L274 499z"/>
</svg>
